<svg width="18" height="20" viewBox="0 0 18 20" fill="none" xmlns="http://www.w3.org/2000/svg">
<path d="M15 20C14.1667 20 13.4583 19.7083 12.875 19.125C12.2917 18.5417 12 17.8333 12 17C12 16.5737 11.8349 16.1599 11.4667 15.945L6.00206 12.7557C5.43723 12.426 4.73102 12.5421 4.125 12.788C3.775 12.93 3.4 13.0007 3 13C2.16667 13 1.45833 12.7083 0.875 12.125C0.291667 11.5417 0 10.8333 0 10C0 9.16667 0.291667 8.45833 0.875 7.875C1.45833 7.29167 2.16667 7 3 7C3.4 7 3.775 7.071 4.125 7.213C4.73086 7.45881 5.43686 7.57421 6.00155 7.24464L11.7785 3.87302C11.953 3.77122 12.0279 3.5644 12.013 3.363C12.005 3.255 12.0007 3.134 12 3C12 2.16667 12.2917 1.45833 12.875 0.875C13.4583 0.291667 14.1667 0 15 0C15.8333 0 16.5417 0.291667 17.125 0.875C17.7083 1.45833 18 2.16667 18 3C18 3.83333 17.7083 4.54167 17.125 5.125C16.5417 5.70833 15.8333 6 15 6C14.6 6 14.225 5.929 13.875 5.787C13.2691 5.54119 12.5631 5.42579 11.9984 5.75536L6.22243 9.12641C6.04744 9.22854 5.97189 9.43602 5.988 9.638C5.99667 9.74667 6.00067 9.86733 6 10C5.99933 10.1327 5.99533 10.2537 5.988 10.363C5.97451 10.5641 6.04767 10.7716 6.22172 10.8732L11.9984 14.2446C12.5629 14.5741 13.2688 14.4578 13.875 14.213C14.225 14.0717 14.6 14.0007 15 14C15.8333 14 16.5417 14.2917 17.125 14.875C17.7083 15.4583 18 16.1667 18 17C18 17.8333 17.7083 18.5417 17.125 19.125C16.5417 19.7083 15.8333 20 15 20Z" fill="black"/>
</svg>
