<svg width="21" height="21" viewBox="0 0 21 21" fill="none" xmlns="http://www.w3.org/2000/svg">
<path d="M1.99122 1.99134L1.56695 1.56707L1.56695 1.56707L1.99122 1.99134ZM18.2088 1.99134L18.633 1.56708L18.633 1.56706L18.2088 1.99134ZM18.2088 18.2089L18.633 18.6332L18.6331 18.6331L18.2088 18.2089ZM1.99122 18.2089L1.56694 18.6332L1.56696 18.6332L1.99122 18.2089ZM12.5 12.1001C12.5 12.4315 12.7686 12.7001 13.1 12.7001C13.4313 12.7001 13.7 12.4315 13.7 12.1001H13.1H12.5ZM12.6607 7.53944L13.085 7.11519L13.0849 7.11514L12.6607 7.53944ZM8.09998 6.5001C7.7686 6.5001 7.49998 6.76873 7.49998 7.1001C7.49998 7.43147 7.7686 7.7001 8.09998 7.7001V7.1001V6.5001ZM12.5242 8.52436C12.7586 8.29005 12.7586 7.91015 12.5242 7.67583C12.2899 7.44152 11.91 7.44152 11.6757 7.67583L12.1 8.1001L12.5242 8.52436ZM6.67571 12.6758C6.4414 12.9101 6.4414 13.29 6.67571 13.5244C6.91003 13.7587 7.28993 13.7587 7.52424 13.5244L7.09998 13.1001L6.67571 12.6758ZM0.599976 10.1001H1.19998C1.19998 7.84397 1.20125 6.21223 1.36853 4.96801C1.53349 3.74105 1.84992 2.98116 2.41548 2.4156L1.99122 1.99134L1.56695 1.56707C0.74127 2.39276 0.362081 3.44809 0.179231 4.80811C-0.00129873 6.15087 -2.44379e-05 7.87789 -2.44379e-05 10.1001H0.599976ZM1.99122 1.99134L2.41548 2.4156C2.98104 1.85004 3.74093 1.53361 4.96789 1.36865C6.2121 1.20137 7.84384 1.2001 10.1 1.2001V0.600098V9.76324e-05C7.87777 9.76324e-05 6.15075 -0.00117666 4.80799 0.179353C3.44796 0.362203 2.39264 0.741392 1.56695 1.56707L1.99122 1.99134ZM10.1 0.600098V1.2001C12.3561 1.2001 13.9878 1.20137 15.2321 1.36865C16.459 1.53361 17.2189 1.85004 17.7845 2.41561L18.2088 1.99134L18.633 1.56706C17.8073 0.74139 16.752 0.362203 15.3919 0.179353C14.0492 -0.0011766 12.3222 9.76324e-05 10.1 9.76324e-05V0.600098ZM18.2088 1.99134L17.7845 2.41559C18.35 2.98116 18.6665 3.74104 18.8314 4.968C18.9987 6.21222 19 7.84397 19 10.1001H19.6H20.2C20.2 7.87789 20.2013 6.15088 20.0207 4.80811C19.8379 3.44809 19.4587 2.39277 18.633 1.56708L18.2088 1.99134ZM19.6 10.1001H19C19 12.3562 18.9987 13.9879 18.8314 15.2322C18.6665 16.4591 18.35 17.2191 17.7845 17.7846L18.2088 18.2089L18.6331 18.6331C19.4587 17.8074 19.8379 16.7521 20.0207 15.3921C20.2013 14.0493 20.2 12.3223 20.2 10.1001H19.6ZM18.2088 18.2089L17.7845 17.7846C17.2189 18.3502 16.459 18.6666 15.2321 18.8315C13.9878 18.9988 12.3561 19.0001 10.1 19.0001V19.6001V20.2001C12.3222 20.2001 14.0492 20.2014 15.3919 20.0208C16.752 19.838 17.8073 19.4588 18.633 18.6332L18.2088 18.2089ZM10.1 19.6001V19.0001C7.84384 19.0001 6.2121 18.9988 4.96788 18.8315C3.74092 18.6666 2.98104 18.3502 2.41547 17.7846L1.99122 18.2089L1.56696 18.6332C2.39265 19.4588 3.44797 19.838 4.80799 20.0208C6.15075 20.2014 7.87777 20.2001 10.1 20.2001V19.6001ZM1.99122 18.2089L2.41549 17.7846C1.84992 17.2191 1.53349 16.4591 1.36853 15.2322C1.20125 13.9879 1.19998 12.3562 1.19998 10.1001H0.599976H-2.44379e-05C-2.44379e-05 12.3223 -0.00129867 14.0493 0.179231 15.3921C0.362081 16.7521 0.741268 17.8074 1.56694 18.6332L1.99122 18.2089ZM13.1 12.1001H13.7V10.1001H13.1H12.5V12.1001H13.1ZM13.1 10.1001H13.7C13.7 9.40996 13.7013 8.832 13.6397 8.37425C13.5759 7.89926 13.4347 7.46493 13.085 7.11519L12.6607 7.53944L12.2364 7.96368C12.326 8.05329 12.4044 8.19218 12.4504 8.53414C12.4987 8.89334 12.5 9.37604 12.5 10.1001H13.1ZM12.6607 7.53944L13.0849 7.11514C12.7352 6.76544 12.3008 6.62423 11.8258 6.56037C11.3681 6.49882 10.7901 6.5001 10.1 6.5001V7.1001V7.7001C10.824 7.7001 11.3067 7.70137 11.6659 7.74966C12.0079 7.79564 12.1468 7.87409 12.2364 7.96373L12.6607 7.53944ZM10.1 7.1001V6.5001H8.09998V7.1001V7.7001H10.1V7.1001ZM12.1 8.1001L11.6757 7.67583L6.67571 12.6758L7.09998 13.1001L7.52424 13.5244L12.5242 8.52436L12.1 8.1001Z" fill="#4D20F0"/>
</svg>
